<svg width="15" height="15" viewBox="0 0 15 15" fill="none" xmlns="http://www.w3.org/2000/svg">
<path d="M13.6834 1.31569C12.835 0.46724 11.7069 0 10.5071 0C9.3072 0 8.17918 0.46724 7.33074 1.31569C6.01881 2.62761 5.65287 4.59394 6.38468 6.27899L0.106165 12.5577C0.0427034 12.6211 0.00696815 12.7072 0.00676453 12.7969L0.00292969 14.6558C0.00292969 14.659 0.00296362 14.6623 0.00306543 14.6655C0.00306543 14.6656 0.00306543 14.6657 0.00306543 14.6658C0.00306543 14.6658 0.00306543 14.6659 0.00306543 14.6659C0.00537313 14.7496 0.0384614 14.8326 0.10233 14.8965C0.167013 14.9611 0.251312 14.9942 0.336086 14.9958C0.336086 14.9958 0.33612 14.9958 0.336154 14.9958C0.336289 14.9958 0.336391 14.9958 0.336731 14.9958C0.337952 14.9952 0.340226 14.9958 0.341923 14.9958L3.94684 15C3.94698 15 3.94712 15 3.94725 15C4.03715 15 4.12345 14.9643 4.18708 14.9007C4.25081 14.8371 4.28662 14.7507 4.28662 14.6606V13.2467H5.70055C5.88795 13.2467 6.03992 13.0947 6.03992 12.9073L6.03995 11.4933H7.45389C7.64129 11.4933 7.79326 11.3414 7.79326 11.154V9.54119L8.7201 8.61434C9.29543 8.86422 9.9033 8.98612 10.507 8.98609C11.6713 8.98602 12.8194 8.53229 13.6834 7.66829C15.4348 5.91689 15.4348 3.06709 13.6834 1.31569ZM13.2034 7.18836C12.04 8.35188 10.2704 8.63898 8.80006 7.9029C8.66933 7.83743 8.51146 7.86305 8.40816 7.96639L7.21389 9.16066C7.15026 9.22429 7.11449 9.31062 7.11449 9.40062V10.8146H5.70055C5.51316 10.8146 5.36119 10.9665 5.36119 11.154L5.36115 12.5679H3.94722C3.75982 12.5679 3.60785 12.7199 3.60785 12.9073V14.3209L1.16064 14.318L2.77939 12.6993C2.91191 12.5668 2.91191 12.3519 2.77939 12.2194C2.64683 12.0868 2.43201 12.0868 2.29942 12.2194L0.683326 13.8355L0.685192 12.9384L7.03267 6.5908C7.13601 6.48747 7.16159 6.32959 7.09616 6.19894C6.36004 4.7286 6.64722 2.95904 7.8107 1.79559C8.53094 1.07538 9.48853 0.678733 10.5071 0.678733C11.5256 0.678733 12.4832 1.07538 13.2034 1.79562C13.9237 2.51586 14.3203 3.47342 14.3203 4.49199C14.3203 5.51057 13.9237 6.46816 13.2034 7.18836Z" fill="#C8C8C8"/>
</svg>
