<svg width="15" height="13" viewBox="0 0 15 13" fill="none" xmlns="http://www.w3.org/2000/svg">
<path d="M13.5937 0.875H1.40626C0.6308 0.875 0 1.5058 0 2.28126V10.7188C0 11.4942 0.6308 12.125 1.40626 12.125H13.5937C14.3692 12.125 15 11.4942 15 10.7188V2.28126C15 1.5058 14.3692 0.875 13.5937 0.875V0.875ZM13.5937 1.8125C13.6574 1.8125 13.718 1.82571 13.7734 1.84879L7.5 7.28599L1.22656 1.84879C1.28195 1.82574 1.34254 1.8125 1.40623 1.8125H13.5937ZM13.5937 11.1875H1.40626C1.14763 11.1875 0.937496 10.9774 0.937496 10.7187V2.83926L7.19283 8.26056C7.2812 8.33699 7.3906 8.375 7.5 8.375C7.6094 8.375 7.7188 8.33702 7.80717 8.26056L14.0625 2.83926V10.7188C14.0625 10.9774 13.8524 11.1875 13.5937 11.1875V11.1875Z" fill="#C8C8C8"/>
</svg>
